<svg width="32" height="32" viewBox="0 0 128 128" xmlns="http://www.w3.org/2000/svg" aria-label="Forecast/Outlook">
  <circle cx="48.4" cy="43" r="16.5" fill="#ffe62e" stroke="#fbbf24" stroke-width="2" />
  <path d="M10.8,97.8c4-13.4,12.6-31.6,24.7-33.7c0.2,0,0.8-0.1,0.8-0.1c2.3-0.3,4.7-0.1,6.5,0.3L67.9,71l6.4-24h-6v-8h25.8v-2.5h20v13h-20V47H89c0.1,0.9,0,1.8-0.2,2.7l-8.6,32.2c-1,3.9-5,6.2-8.9,5.2L53,82.1L52.9,112H8C8.2,108.1,9.1,103.4,10.8,97.8z" fill="#60a5fa" stroke="#2563eb" stroke-width="2" />
  <rect x="116" y="35" width="4" height="16" fill="#fbbf24" stroke="#b45309" stroke-width="1" />
</svg> 