<svg width="140" height="140" viewBox="0 0 140 140" xmlns="http://www.w3.org/2000/svg" role="img" aria-label="Cosmic Space Dashboard Logo">
  <!-- Gradient for planet -->
  <defs>
    <radialGradient id="planetGradient" cx="50%" cy="50%" r="50%">
      <stop offset="0%" stop-color="#4a90e2" />
      <stop offset="100%" stop-color="#0b3d91" />
    </radialGradient>
    <radialGradient id="ringGlow" cx="50%" cy="50%" r="50%">
      <stop offset="0%" stop-color="#ff9a00" stop-opacity="0.8" />
      <stop offset="100%" stop-color="#ff5e00" stop-opacity="0" />
    </radialGradient>
  </defs>

  <!-- Planet -->
  <circle cx="70" cy="70" r="45" fill="url(#planetGradient)" />

  <!-- Orbit ring with glow -->
  <ellipse cx="70" cy="70" rx="60" ry="25" fill="none" stroke="#ff7f00" stroke-width="4" />
  <ellipse cx="70" cy="70" rx="60" ry="25" fill="url(#ringGlow)" />

  <!-- Galaxy swirl (simple spiral) -->
  <path d="M70 70 
           m-30 0
           a30 30 0 1 1 60 0
           a20 20 0 1 0 -40 0
           a10 10 0 1 1 20 0"
        fill="none" stroke="#a1caf1" stroke-width="1.5" opacity="0.6" />

  <!-- Shooting star -->
  <polygon points="110,30 115,45 130,50 115,55 110,70 105,55 90,50 105,45" fill="#ffd700" />
  <line x1="90" y1="50" x2="70" y2="70" stroke="#ffd700" stroke-width="2" stroke-linecap="round" opacity="0.7" />

  
</svg>
